<svg xmlns="http://www.w3.org/2000/svg" xmlns:xlink="http://www.w3.org/1999/xlink" width="500" zoomAndPan="magnify" viewBox="0 0 375 374.999991" height="500" preserveAspectRatio="xMidYMid meet" version="1.0"><defs><g/><clipPath id="aeb590635f"><path d="M 188 141 L 325 141 L 325 243 L 188 243 Z M 188 141 " clip-rule="nonzero"/></clipPath><clipPath id="fa18fd9243"><path d="M 182.355469 156.0625 L 314.285156 124.085938 L 337.253906 218.839844 L 205.324219 250.816406 Z M 182.355469 156.0625 " clip-rule="nonzero"/></clipPath><clipPath id="3cd178a97f"><path d="M 182.355469 156.0625 L 314.285156 124.085938 L 337.253906 218.839844 L 205.324219 250.816406 Z M 182.355469 156.0625 " clip-rule="nonzero"/></clipPath><clipPath id="41cc141eed"><path d="M 39 143 L 176 143 L 176 244 L 39 244 Z M 39 143 " clip-rule="nonzero"/></clipPath><clipPath id="7aae1ac6bf"><path d="M 27.210938 166.339844 L 159.140625 134.363281 L 182.105469 229.121094 L 50.175781 261.097656 Z M 27.210938 166.339844 " clip-rule="nonzero"/></clipPath><clipPath id="8341404443"><path d="M 182.34375 229.207031 L 50.414062 261.183594 L 27.449219 166.429688 L 159.378906 134.449219 Z M 182.34375 229.207031 " clip-rule="nonzero"/></clipPath></defs><rect x="-37.5" width="450" fill="#ffffff" y="-37.499999" height="449.999989" fill-opacity="1"/><rect x="-37.5" width="450" fill="#8c52ff" y="-37.499999" height="449.999989" fill-opacity="1"/><g clip-path="url(#aeb590635f)"><g clip-path="url(#fa18fd9243)"><g clip-path="url(#3cd178a97f)"><path fill="#ffffff" d="M 322.546875 168.871094 C 323.042969 170.742188 324.078125 171.859375 324.929688 172.488281 C 323.648438 174.230469 322.355469 175.960938 321.054688 177.6875 C 319.640625 176.621094 317.339844 174.363281 316.332031 170.554688 C 313.949219 173.75 311.535156 176.917969 309.09375 180.066406 C 306.304688 183.660156 303.476562 187.226562 300.601562 190.761719 C 297.730469 194.296875 294.816406 197.796875 291.84375 201.257812 C 288.875 204.71875 285.847656 208.136719 282.75 211.5 C 279.648438 214.859375 276.472656 218.164062 273.1875 221.378906 C 269.902344 224.59375 266.503906 227.71875 262.90625 230.675781 C 259.300781 233.617188 255.519531 236.429688 251.21875 238.738281 C 249.058594 239.878906 246.757812 240.898438 244.15625 241.53125 C 242.855469 241.832031 241.46875 242.035156 240.003906 242.015625 C 239.269531 242.007812 238.515625 241.929688 237.761719 241.792969 C 237.003906 241.644531 236.246094 241.421875 235.511719 241.125 C 234.777344 240.816406 234.074219 240.433594 233.421875 239.988281 C 232.832031 239.535156 232.230469 239.113281 231.707031 238.5625 C 231.148438 238.058594 230.683594 237.457031 230.21875 236.863281 C 230.011719 236.550781 229.804688 236.234375 229.605469 235.917969 C 229.5 235.757812 229.410156 235.59375 229.328125 235.429688 L 229.078125 234.929688 C 228.433594 233.597656 228 232.199219 227.789062 230.84375 L 227.695312 230.332031 L 227.640625 229.828125 C 227.605469 229.492188 227.566406 229.152344 227.542969 228.820312 C 227.523438 228.164062 227.472656 227.492188 227.503906 226.855469 C 227.5625 224.265625 227.960938 221.816406 228.511719 219.46875 C 229.066406 217.117188 229.761719 214.851562 230.527344 212.632812 C 232.066406 208.203125 233.882812 203.960938 235.769531 199.789062 C 237.660156 195.617188 239.632812 191.515625 241.585938 187.4375 C 243.542969 183.355469 245.480469 179.296875 247.28125 175.214844 C 249.074219 171.140625 250.761719 167.03125 251.976562 162.921875 C 252.578125 160.875 253.054688 158.820312 253.28125 156.847656 L 253.34375 156.121094 L 253.375 155.753906 L 253.382812 155.402344 C 253.382812 155.167969 253.394531 154.929688 253.394531 154.695312 L 253.363281 154.019531 C 253.300781 153.132812 253.152344 152.308594 252.898438 151.609375 C 252.632812 150.917969 252.28125 150.359375 251.816406 149.878906 C 251.695312 149.761719 251.59375 149.632812 251.445312 149.535156 L 251.238281 149.375 C 251.171875 149.320312 251.113281 149.261719 251.019531 149.210938 C 250.851562 149.109375 250.679688 149 250.515625 148.890625 L 249.980469 148.621094 C 249.257812 148.289062 248.476562 148.058594 247.636719 147.929688 C 246.796875 147.792969 245.894531 147.800781 244.972656 147.863281 C 243.121094 148.003906 241.167969 148.527344 239.238281 149.226562 C 237.308594 149.945312 235.390625 150.855469 233.507812 151.875 C 229.742188 153.9375 226.117188 156.433594 222.609375 159.105469 C 219.101562 161.789062 215.710938 164.664062 212.40625 167.65625 C 209.105469 170.648438 205.890625 173.753906 202.757812 176.945312 C 201.191406 178.539062 199.644531 180.15625 198.117188 181.789062 C 197.355469 182.609375 196.601562 183.429688 195.851562 184.257812 C 195.109375 185.078125 194.351562 185.925781 193.652344 186.730469 L 188.773438 182.539062 C 189.554688 181.632812 190.308594 180.792969 191.085938 179.9375 C 191.855469 179.085938 192.632812 178.242188 193.414062 177.402344 C 194.976562 175.726562 196.5625 174.070312 198.167969 172.4375 C 201.378906 169.167969 204.683594 165.980469 208.089844 162.886719 C 211.496094 159.800781 215.015625 156.8125 218.703125 153.996094 C 222.398438 151.183594 226.246094 148.519531 230.425781 146.226562 C 232.523438 145.089844 234.703125 144.046875 237.015625 143.1875 C 239.339844 142.351562 241.796875 141.660156 244.464844 141.449219 C 245.796875 141.355469 247.171875 141.347656 248.574219 141.5625 C 249.972656 141.777344 251.386719 142.179688 252.714844 142.796875 C 253.042969 142.964844 253.371094 143.125 253.695312 143.300781 L 254.625 143.882812 C 254.78125 143.972656 254.9375 144.101562 255.089844 144.222656 L 255.554688 144.585938 C 255.867188 144.820312 256.144531 145.109375 256.425781 145.394531 C 257.542969 146.535156 258.394531 147.941406 258.929688 149.367188 C 259.453125 150.800781 259.683594 152.226562 259.785156 153.597656 L 259.828125 154.613281 C 259.828125 154.949219 259.816406 155.277344 259.8125 155.605469 L 259.796875 156.101562 L 259.757812 156.585938 L 259.679688 157.546875 C 259.382812 160.074219 258.820312 162.445312 258.148438 164.738281 C 256.789062 169.316406 255.015625 173.601562 253.167969 177.8125 C 251.3125 182.015625 249.347656 186.128906 247.390625 190.214844 C 245.433594 194.304688 243.476562 198.363281 241.628906 202.441406 C 239.785156 206.515625 238.039062 210.613281 236.605469 214.738281 C 235.890625 216.800781 235.261719 218.867188 234.777344 220.925781 C 234.292969 222.980469 233.976562 225.03125 233.9375 226.972656 C 233.910156 227.464844 233.953125 227.925781 233.960938 228.398438 C 233.976562 228.628906 234.007812 228.851562 234.03125 229.082031 L 234.0625 229.421875 L 234.125 229.742188 C 234.257812 230.625 234.523438 231.40625 234.859375 232.109375 L 234.992188 232.371094 C 235.03125 232.460938 235.074219 232.546875 235.132812 232.625 C 235.238281 232.78125 235.339844 232.941406 235.4375 233.101562 C 235.683594 233.386719 235.894531 233.699219 236.1875 233.949219 C 236.4375 234.230469 236.785156 234.445312 237.078125 234.695312 C 237.359375 234.886719 237.65625 235.042969 237.964844 235.179688 C 238.28125 235.304688 238.613281 235.402344 238.964844 235.476562 C 239.328125 235.535156 239.699219 235.582031 240.101562 235.585938 C 240.898438 235.59375 241.773438 235.480469 242.671875 235.269531 C 244.480469 234.835938 246.363281 234.03125 248.199219 233.054688 C 251.886719 231.082031 255.429688 228.480469 258.828125 225.699219 C 262.226562 222.90625 265.503906 219.894531 268.691406 216.78125 C 271.878906 213.660156 274.980469 210.433594 278.019531 207.136719 C 281.058594 203.84375 284.035156 200.480469 286.964844 197.066406 C 289.890625 193.65625 292.773438 190.199219 295.609375 186.707031 C 298.449219 183.210938 301.25 179.683594 304.011719 176.121094 C 306.429688 173.007812 308.820312 169.867188 311.179688 166.707031 C 307.257812 166.796875 304.464844 165.175781 303.054688 164.113281 C 304.308594 162.449219 305.558594 160.777344 306.796875 159.101562 C 307.648438 159.730469 309.015625 160.402344 310.933594 160.339844 C 312.84375 160.277344 315.332031 159.464844 318.335938 157.128906 L 323.382812 160.683594 C 322.097656 164.382812 322.054688 166.988281 322.546875 168.871094 Z M 322.546875 168.871094 " fill-opacity="1" fill-rule="nonzero"/></g></g></g><g clip-path="url(#41cc141eed)"><g clip-path="url(#7aae1ac6bf)"><g clip-path="url(#8341404443)"><path fill="#ffffff" d="M 42.152344 216.398438 C 41.660156 214.527344 40.621094 213.40625 39.769531 212.78125 C 41.054688 211.039062 42.347656 209.308594 43.644531 207.582031 C 45.058594 208.648438 47.359375 210.90625 48.367188 214.710938 C 50.75 211.519531 53.164062 208.351562 55.609375 205.203125 C 58.398438 201.609375 61.226562 198.042969 64.097656 194.507812 C 66.96875 190.972656 69.886719 187.472656 72.855469 184.011719 C 75.828125 180.550781 78.851562 177.132812 81.953125 173.769531 C 85.054688 170.410156 88.226562 167.105469 91.511719 163.890625 C 94.800781 160.675781 98.195312 157.550781 101.792969 154.59375 C 105.402344 151.652344 109.179688 148.839844 113.484375 146.53125 C 115.640625 145.390625 117.945312 144.371094 120.542969 143.738281 C 121.847656 143.4375 123.230469 143.234375 124.699219 143.253906 C 125.429688 143.261719 126.183594 143.339844 126.941406 143.476562 C 127.695312 143.625 128.453125 143.847656 129.191406 144.144531 C 129.921875 144.453125 130.625 144.835938 131.277344 145.28125 C 131.871094 145.734375 132.46875 146.15625 132.992188 146.703125 C 133.550781 147.210938 134.015625 147.8125 134.480469 148.40625 C 134.6875 148.71875 134.894531 149.035156 135.09375 149.351562 C 135.203125 149.511719 135.289062 149.675781 135.371094 149.839844 L 135.621094 150.339844 C 136.265625 151.671875 136.699219 153.070312 136.914062 154.425781 L 137.003906 154.9375 L 137.058594 155.441406 C 137.09375 155.777344 137.136719 156.117188 137.160156 156.449219 C 137.179688 157.105469 137.226562 157.777344 137.195312 158.414062 C 137.140625 161.003906 136.738281 163.453125 136.1875 165.800781 C 135.636719 168.152344 134.941406 170.417969 134.171875 172.636719 C 132.632812 177.066406 130.820312 181.308594 128.929688 185.480469 C 127.042969 189.652344 125.066406 193.75 123.113281 197.832031 C 121.160156 201.914062 119.21875 205.972656 117.417969 210.054688 C 115.625 214.128906 113.9375 218.238281 112.722656 222.347656 C 112.121094 224.394531 111.644531 226.449219 111.417969 228.421875 L 111.359375 229.148438 L 111.328125 229.515625 L 111.320312 229.867188 C 111.316406 230.101562 111.304688 230.339844 111.304688 230.574219 L 111.335938 231.25 C 111.402344 232.136719 111.546875 232.960938 111.800781 233.660156 C 112.066406 234.351562 112.421875 234.910156 112.886719 235.390625 C 113.003906 235.507812 113.105469 235.636719 113.257812 235.734375 L 113.460938 235.894531 C 113.53125 235.949219 113.585938 236.007812 113.679688 236.058594 C 113.851562 236.160156 114.019531 236.269531 114.1875 236.378906 L 114.71875 236.648438 C 115.441406 236.980469 116.226562 237.210938 117.0625 237.339844 C 117.902344 237.476562 118.804688 237.46875 119.726562 237.40625 C 121.582031 237.265625 123.53125 236.742188 125.460938 236.042969 C 127.394531 235.324219 129.308594 234.414062 131.191406 233.394531 C 134.957031 231.332031 138.585938 228.835938 142.089844 226.164062 C 145.597656 223.480469 148.992188 220.605469 152.292969 217.613281 C 155.59375 214.617188 158.808594 211.515625 161.941406 208.324219 C 163.511719 206.730469 165.058594 205.113281 166.582031 203.476562 C 167.34375 202.660156 168.101562 201.839844 168.847656 201.011719 C 169.59375 200.191406 170.351562 199.34375 171.050781 198.539062 L 175.925781 202.730469 C 175.144531 203.636719 174.390625 204.476562 173.617188 205.332031 C 172.84375 206.183594 172.066406 207.027344 171.285156 207.867188 C 169.722656 209.542969 168.136719 211.199219 166.53125 212.832031 C 163.320312 216.101562 160.019531 219.289062 156.613281 222.382812 C 153.203125 225.46875 149.683594 228.457031 145.996094 231.273438 C 142.304688 234.085938 138.453125 236.75 134.273438 239.042969 C 132.175781 240.179688 129.996094 241.222656 127.683594 242.082031 C 125.359375 242.917969 122.90625 243.605469 120.234375 243.820312 C 118.902344 243.914062 117.527344 243.921875 116.125 243.707031 C 114.726562 243.492188 113.316406 243.089844 111.984375 242.46875 C 111.65625 242.304688 111.328125 242.144531 111.003906 241.96875 L 110.074219 241.386719 C 109.921875 241.296875 109.765625 241.167969 109.609375 241.046875 L 109.148438 240.683594 C 108.832031 240.449219 108.554688 240.160156 108.273438 239.875 C 107.15625 238.734375 106.304688 237.328125 105.769531 235.902344 C 105.25 234.46875 105.015625 233.042969 104.917969 231.671875 L 104.871094 230.65625 C 104.871094 230.320312 104.882812 229.992188 104.890625 229.664062 L 104.902344 229.167969 L 104.941406 228.683594 L 105.023438 227.722656 C 105.316406 225.195312 105.882812 222.824219 106.550781 220.53125 C 107.910156 215.953125 109.683594 211.667969 111.53125 207.457031 C 113.390625 203.253906 115.355469 199.140625 117.3125 195.054688 C 119.269531 190.964844 121.222656 186.90625 123.070312 182.828125 C 124.914062 178.753906 126.664062 174.65625 128.09375 170.53125 C 128.808594 168.46875 129.4375 166.402344 129.921875 164.34375 C 130.40625 162.289062 130.722656 160.238281 130.761719 158.296875 C 130.792969 157.804688 130.746094 157.34375 130.738281 156.871094 C 130.722656 156.640625 130.691406 156.417969 130.671875 156.1875 L 130.636719 155.847656 L 130.574219 155.523438 C 130.441406 154.644531 130.175781 153.863281 129.839844 153.15625 L 129.710938 152.898438 C 129.667969 152.808594 129.625 152.722656 129.570312 152.644531 C 129.464844 152.488281 129.363281 152.328125 129.261719 152.167969 C 129.015625 151.882812 128.804688 151.570312 128.511719 151.320312 C 128.261719 151.039062 127.917969 150.824219 127.625 150.574219 C 127.339844 150.382812 127.042969 150.226562 126.734375 150.089844 C 126.417969 149.964844 126.085938 149.867188 125.734375 149.792969 C 125.375 149.734375 125 149.6875 124.597656 149.683594 C 123.800781 149.671875 122.925781 149.789062 122.027344 150 C 120.21875 150.433594 118.335938 151.238281 116.5 152.214844 C 112.8125 154.1875 109.273438 156.789062 105.875 159.570312 C 102.472656 162.363281 99.199219 165.371094 96.011719 168.488281 C 92.820312 171.605469 89.722656 174.835938 86.679688 178.132812 C 83.640625 181.425781 80.664062 184.789062 77.738281 188.203125 C 74.808594 191.613281 71.929688 195.070312 69.089844 198.5625 C 66.25 202.058594 63.453125 205.585938 60.691406 209.144531 C 58.273438 212.261719 55.882812 215.402344 53.519531 218.5625 C 57.441406 218.472656 60.234375 220.09375 61.644531 221.15625 C 60.390625 222.820312 59.140625 224.492188 57.90625 226.167969 C 57.054688 225.539062 55.6875 224.867188 53.769531 224.929688 C 51.855469 224.992188 49.367188 225.804688 46.363281 228.140625 L 41.316406 224.582031 C 42.605469 220.886719 42.648438 218.28125 42.152344 216.398438 Z M 42.152344 216.398438 " fill-opacity="1" fill-rule="nonzero"/></g></g></g><g fill="#9cff1e" fill-opacity="1"><g transform="translate(63.434604, 214.940948)"><g><path d="M 26.984375 0.59375 C 21.347656 0.59375 16.5625 0.179688 12.625 -0.640625 C 8.695312 -1.472656 5.707031 -2.976562 3.65625 -5.15625 C 1.613281 -7.34375 0.59375 -10.484375 0.59375 -14.578125 L 15.9375 -14.578125 C 15.9375 -13.910156 16.226562 -13.320312 16.8125 -12.8125 C 17.40625 -12.300781 18.539062 -11.90625 20.21875 -11.625 C 21.894531 -11.351562 24.34375 -11.21875 27.5625 -11.21875 C 30.59375 -11.21875 32.851562 -11.285156 34.34375 -11.421875 C 35.84375 -11.554688 36.828125 -11.78125 37.296875 -12.09375 C 37.773438 -12.414062 38.015625 -12.832031 38.015625 -13.34375 C 38.015625 -13.925781 37.769531 -14.363281 37.28125 -14.65625 C 36.789062 -14.957031 35.753906 -15.175781 34.171875 -15.3125 C 32.597656 -15.457031 30.203125 -15.566406 26.984375 -15.640625 C 20.765625 -15.835938 15.765625 -16.367188 11.984375 -17.234375 C 8.203125 -18.097656 5.457031 -19.460938 3.75 -21.328125 C 2.039062 -23.203125 1.1875 -25.734375 1.1875 -28.921875 C 1.1875 -33.484375 3.347656 -36.785156 7.671875 -38.828125 C 12.003906 -40.878906 18.242188 -41.90625 26.390625 -41.90625 C 31.773438 -41.90625 36.335938 -41.429688 40.078125 -40.484375 C 43.816406 -39.546875 46.671875 -38.023438 48.640625 -35.921875 C 50.609375 -33.816406 51.59375 -30.992188 51.59375 -27.453125 L 36.25 -27.453125 C 36.25 -28.554688 35.34375 -29.273438 33.53125 -29.609375 C 31.71875 -29.941406 28.941406 -30.109375 25.203125 -30.109375 C 22.804688 -30.109375 20.988281 -30.054688 19.75 -29.953125 C 18.507812 -29.859375 17.660156 -29.671875 17.203125 -29.390625 C 16.753906 -29.117188 16.53125 -28.707031 16.53125 -28.15625 C 16.53125 -27.644531 16.773438 -27.269531 17.265625 -27.03125 C 17.753906 -26.800781 18.742188 -26.644531 20.234375 -26.5625 C 21.734375 -26.488281 23.984375 -26.390625 26.984375 -26.265625 C 31.066406 -26.109375 34.734375 -25.863281 37.984375 -25.53125 C 41.234375 -25.195312 44 -24.613281 46.28125 -23.78125 C 48.5625 -22.957031 50.3125 -21.75 51.53125 -20.15625 C 52.75 -18.5625 53.359375 -16.40625 53.359375 -13.6875 C 53.359375 -9.914062 52.332031 -6.992188 50.28125 -4.921875 C 48.238281 -2.859375 45.257812 -1.421875 41.34375 -0.609375 C 37.4375 0.191406 32.648438 0.59375 26.984375 0.59375 Z M 26.984375 0.59375 "/></g></g></g><g fill="#9cff1e" fill-opacity="1"><g transform="translate(117.381354, 214.940948)"><g><path d="M 26.5625 0.59375 C 17.46875 0.59375 10.863281 -1.15625 6.75 -4.65625 C 2.644531 -8.164062 0.59375 -13.519531 0.59375 -20.71875 C 0.59375 -27.882812 2.644531 -33.207031 6.75 -36.6875 C 10.863281 -40.164062 17.46875 -41.90625 26.5625 -41.90625 C 35.613281 -41.90625 42.203125 -40.164062 46.328125 -36.6875 C 50.460938 -33.207031 52.53125 -27.882812 52.53125 -20.71875 C 52.53125 -13.550781 50.460938 -8.207031 46.328125 -4.6875 C 42.203125 -1.164062 35.613281 0.59375 26.5625 0.59375 Z M 26.5625 -12.390625 C 29.59375 -12.390625 31.863281 -12.78125 33.375 -13.5625 C 34.894531 -14.351562 35.910156 -15.378906 36.421875 -16.640625 C 36.929688 -17.898438 37.1875 -19.257812 37.1875 -20.71875 C 37.1875 -22.175781 36.929688 -23.523438 36.421875 -24.765625 C 35.910156 -26.003906 34.894531 -27.003906 33.375 -27.765625 C 31.863281 -28.535156 29.59375 -28.921875 26.5625 -28.921875 C 23.53125 -28.921875 21.253906 -28.535156 19.734375 -27.765625 C 18.222656 -27.003906 17.210938 -26.003906 16.703125 -24.765625 C 16.191406 -23.523438 15.9375 -22.175781 15.9375 -20.71875 C 15.9375 -19.257812 16.191406 -17.890625 16.703125 -16.609375 C 17.210938 -15.335938 18.234375 -14.316406 19.765625 -13.546875 C 21.304688 -12.773438 23.570312 -12.390625 26.5625 -12.390625 Z M 26.5625 -12.390625 "/></g></g></g><g fill="#9cff1e" fill-opacity="1"><g transform="translate(170.501776, 214.940948)"><g><path d="M 26.5625 0.59375 C 17.46875 0.59375 10.863281 -1.15625 6.75 -4.65625 C 2.644531 -8.164062 0.59375 -13.519531 0.59375 -20.71875 C 0.59375 -27.882812 2.644531 -33.207031 6.75 -36.6875 C 10.863281 -40.164062 17.46875 -41.90625 26.5625 -41.90625 C 34.820312 -41.90625 41.109375 -40.398438 45.421875 -37.390625 C 49.734375 -34.378906 52.046875 -29.609375 52.359375 -23.078125 L 36.65625 -23.078125 C 36.382812 -25.046875 35.453125 -26.507812 33.859375 -27.46875 C 32.265625 -28.4375 29.832031 -28.921875 26.5625 -28.921875 C 23.53125 -28.921875 21.253906 -28.535156 19.734375 -27.765625 C 18.222656 -27.003906 17.210938 -26.003906 16.703125 -24.765625 C 16.191406 -23.523438 15.9375 -22.175781 15.9375 -20.71875 C 15.9375 -19.257812 16.191406 -17.890625 16.703125 -16.609375 C 17.210938 -15.335938 18.234375 -14.316406 19.765625 -13.546875 C 21.304688 -12.773438 23.570312 -12.390625 26.5625 -12.390625 C 29.832031 -12.390625 32.265625 -12.890625 33.859375 -13.890625 C 35.453125 -14.898438 36.382812 -16.390625 36.65625 -18.359375 L 52.359375 -18.359375 C 52.046875 -11.828125 49.742188 -7.035156 45.453125 -3.984375 C 41.160156 -0.929688 34.863281 0.59375 26.5625 0.59375 Z M 26.5625 0.59375 "/></g></g></g><g fill="#9cff1e" fill-opacity="1"><g transform="translate(223.445135, 214.940948)"><g><path d="M 1.1875 0 L 1.1875 -41.328125 L 16.53125 -41.328125 L 16.53125 0 Z M 1.1875 0 "/></g></g></g><g fill="#9cff1e" fill-opacity="1"><g transform="translate(241.151942, 214.940948)"><g><path d="M 26.5625 0.59375 C 17.46875 0.59375 10.863281 -1.15625 6.75 -4.65625 C 2.644531 -8.164062 0.59375 -13.519531 0.59375 -20.71875 C 0.59375 -27.882812 2.644531 -33.207031 6.75 -36.6875 C 10.863281 -40.164062 17.46875 -41.90625 26.5625 -41.90625 C 35.613281 -41.90625 42.203125 -40.164062 46.328125 -36.6875 C 50.460938 -33.207031 52.53125 -27.882812 52.53125 -20.71875 C 52.53125 -13.550781 50.460938 -8.207031 46.328125 -4.6875 C 42.203125 -1.164062 35.613281 0.59375 26.5625 0.59375 Z M 26.5625 -12.390625 C 29.59375 -12.390625 31.863281 -12.78125 33.375 -13.5625 C 34.894531 -14.351562 35.910156 -15.378906 36.421875 -16.640625 C 36.929688 -17.898438 37.1875 -19.257812 37.1875 -20.71875 C 37.1875 -22.175781 36.929688 -23.523438 36.421875 -24.765625 C 35.910156 -26.003906 34.894531 -27.003906 33.375 -27.765625 C 31.863281 -28.535156 29.59375 -28.921875 26.5625 -28.921875 C 23.53125 -28.921875 21.253906 -28.535156 19.734375 -27.765625 C 18.222656 -27.003906 17.210938 -26.003906 16.703125 -24.765625 C 16.191406 -23.523438 15.9375 -22.175781 15.9375 -20.71875 C 15.9375 -19.257812 16.191406 -17.890625 16.703125 -16.609375 C 17.210938 -15.335938 18.234375 -14.316406 19.765625 -13.546875 C 21.304688 -12.773438 23.570312 -12.390625 26.5625 -12.390625 Z M 26.5625 -12.390625 "/></g></g></g><g fill="#ffffff" fill-opacity="1"><g transform="translate(46.104873, 200.316317)"><g><path d="M 1.5 -2.171875 C 1.289062 -1.847656 1.0625 -1.578125 0.8125 -1.359375 C 0.570312 -1.140625 0.320312 -0.972656 0.0625 -0.859375 C -0.195312 -0.753906 -0.441406 -0.707031 -0.671875 -0.71875 L -0.953125 -1.84375 L -0.90625 -1.9375 C -0.59375 -1.957031 -0.316406 -2.039062 -0.078125 -2.1875 C 0.160156 -2.34375 0.363281 -2.550781 0.53125 -2.8125 C 0.675781 -3.050781 0.742188 -3.253906 0.734375 -3.421875 C 0.722656 -3.585938 0.644531 -3.71875 0.5 -3.8125 C 0.375 -3.882812 0.242188 -3.90625 0.109375 -3.875 C -0.0234375 -3.84375 -0.175781 -3.742188 -0.34375 -3.578125 L -0.890625 -3.0625 C -1.304688 -2.65625 -1.695312 -2.410156 -2.0625 -2.328125 C -2.425781 -2.253906 -2.789062 -2.332031 -3.15625 -2.5625 C -3.457031 -2.75 -3.671875 -2.988281 -3.796875 -3.28125 C -3.921875 -3.582031 -3.953125 -3.90625 -3.890625 -4.25 C -3.835938 -4.59375 -3.691406 -4.953125 -3.453125 -5.328125 C -3.179688 -5.753906 -2.894531 -6.066406 -2.59375 -6.265625 C -2.300781 -6.472656 -2 -6.59375 -1.6875 -6.625 L -1.375 -5.546875 L -1.4375 -5.453125 C -1.6875 -5.410156 -1.894531 -5.328125 -2.0625 -5.203125 C -2.226562 -5.078125 -2.375 -4.914062 -2.5 -4.71875 C -2.800781 -4.238281 -2.804688 -3.910156 -2.515625 -3.734375 C -2.398438 -3.648438 -2.273438 -3.628906 -2.140625 -3.671875 C -2.003906 -3.710938 -1.835938 -3.820312 -1.640625 -4 L -1.15625 -4.53125 C -0.738281 -4.945312 -0.347656 -5.195312 0.015625 -5.28125 C 0.390625 -5.363281 0.769531 -5.28125 1.15625 -5.03125 C 1.457031 -4.832031 1.675781 -4.585938 1.8125 -4.296875 C 1.945312 -4.003906 1.988281 -3.675781 1.9375 -3.3125 C 1.894531 -2.945312 1.75 -2.566406 1.5 -2.171875 Z M 1.5 -2.171875 "/></g></g></g><g fill="#ffffff" fill-opacity="1"><g transform="translate(48.807157, 195.991651)"><g><path d="M 1.953125 -2.640625 C 1.640625 -2.179688 1.269531 -1.84375 0.84375 -1.625 C 0.425781 -1.414062 -0.03125 -1.335938 -0.53125 -1.390625 C -1.03125 -1.453125 -1.535156 -1.660156 -2.046875 -2.015625 C -2.554688 -2.367188 -2.921875 -2.765625 -3.140625 -3.203125 C -3.367188 -3.648438 -3.460938 -4.109375 -3.421875 -4.578125 C -3.378906 -5.054688 -3.203125 -5.523438 -2.890625 -5.984375 C -2.566406 -6.429688 -2.1875 -6.765625 -1.75 -6.984375 C -1.320312 -7.203125 -0.863281 -7.28125 -0.375 -7.21875 C 0.113281 -7.164062 0.613281 -6.960938 1.125 -6.609375 C 1.632812 -6.253906 2.003906 -5.851562 2.234375 -5.40625 C 2.472656 -4.96875 2.566406 -4.507812 2.515625 -4.03125 C 2.460938 -3.550781 2.273438 -3.085938 1.953125 -2.640625 Z M 0.953125 -3.328125 C 1.460938 -4.054688 1.242188 -4.75 0.296875 -5.40625 C -0.191406 -5.738281 -0.613281 -5.890625 -0.96875 -5.859375 C -1.332031 -5.828125 -1.640625 -5.640625 -1.890625 -5.296875 C -2.378906 -4.578125 -2.148438 -3.890625 -1.203125 -3.234375 C -0.253906 -2.578125 0.460938 -2.609375 0.953125 -3.328125 Z M 0.953125 -3.328125 "/></g></g></g><g fill="#ffffff" fill-opacity="1"><g transform="translate(52.479942, 190.687367)"><g><path d="M 2.09375 -2.5625 C 1.757812 -2.125 1.375 -1.804688 0.9375 -1.609375 C 0.5 -1.410156 0.0351562 -1.347656 -0.453125 -1.421875 C -0.953125 -1.492188 -1.453125 -1.722656 -1.953125 -2.109375 C -2.453125 -2.484375 -2.800781 -2.898438 -3 -3.359375 C -3.207031 -3.816406 -3.273438 -4.28125 -3.203125 -4.75 C -3.128906 -5.21875 -2.9375 -5.660156 -2.625 -6.078125 C -1.894531 -7.035156 -1.085938 -7.382812 -0.203125 -7.125 L -0.21875 -5.9375 L -0.28125 -5.84375 C -0.570312 -5.925781 -0.820312 -5.929688 -1.03125 -5.859375 C -1.25 -5.785156 -1.457031 -5.617188 -1.65625 -5.359375 C -1.894531 -5.035156 -1.972656 -4.691406 -1.890625 -4.328125 C -1.804688 -3.972656 -1.53125 -3.625 -1.0625 -3.28125 C -0.601562 -2.925781 -0.191406 -2.753906 0.171875 -2.765625 C 0.546875 -2.773438 0.863281 -2.945312 1.125 -3.28125 C 1.3125 -3.53125 1.40625 -3.789062 1.40625 -4.0625 C 1.40625 -4.34375 1.300781 -4.609375 1.09375 -4.859375 L 1.15625 -4.9375 L 2.21875 -5.421875 C 2.507812 -5.015625 2.660156 -4.566406 2.671875 -4.078125 C 2.679688 -3.585938 2.488281 -3.082031 2.09375 -2.5625 Z M 2.09375 -2.5625 "/></g></g></g><g fill="#ffffff" fill-opacity="1"><g transform="translate(55.971107, 186.128393)"><g><path d="M -3.953125 -5.15625 C -4.109375 -4.96875 -4.300781 -4.859375 -4.53125 -4.828125 C -4.757812 -4.804688 -4.96875 -4.875 -5.15625 -5.03125 C -5.34375 -5.1875 -5.441406 -5.375 -5.453125 -5.59375 C -5.472656 -5.820312 -5.40625 -6.03125 -5.25 -6.21875 C -5.132812 -6.351562 -5.007812 -6.445312 -4.875 -6.5 C -4.738281 -6.5625 -4.597656 -6.582031 -4.453125 -6.5625 C -4.304688 -6.550781 -4.171875 -6.492188 -4.046875 -6.390625 C -3.921875 -6.285156 -3.832031 -6.160156 -3.78125 -6.015625 C -3.726562 -5.878906 -3.710938 -5.734375 -3.734375 -5.578125 C -3.765625 -5.429688 -3.835938 -5.289062 -3.953125 -5.15625 Z M 0.515625 -0.625 L -3.875 -4.1875 L -2.984375 -5.296875 L 1.40625 -1.734375 Z M 0.515625 -0.625 "/></g></g></g><g fill="#ffffff" fill-opacity="1"><g transform="translate(57.837443, 183.814646)"><g><path d="M 1.53125 -3.84375 L 2.5625 -3.421875 C 2.5625 -3.242188 2.507812 -3.035156 2.40625 -2.796875 C 2.300781 -2.566406 2.15625 -2.34375 1.96875 -2.125 C 1.570312 -1.65625 1.144531 -1.410156 0.6875 -1.390625 C 0.226562 -1.367188 -0.242188 -1.566406 -0.734375 -1.984375 L -2.765625 -3.734375 L -3.328125 -3.078125 L -4.1875 -3.8125 L -3.625 -4.46875 L -4.46875 -5.1875 L -3.71875 -6.421875 L -2.703125 -5.546875 L -1.65625 -6.765625 L -0.796875 -6.03125 L -1.84375 -4.8125 L 0.109375 -3.125 C 0.328125 -2.945312 0.523438 -2.859375 0.703125 -2.859375 C 0.878906 -2.867188 1.035156 -2.957031 1.171875 -3.125 C 1.347656 -3.320312 1.441406 -3.53125 1.453125 -3.75 Z M 1.53125 -3.84375 "/></g></g></g><g fill="#ffffff" fill-opacity="1"><g transform="translate(60.657575, 180.541117)"><g><path d="M -3.671875 -5.375 C -3.835938 -5.1875 -4.03125 -5.082031 -4.25 -5.0625 C -4.476562 -5.050781 -4.6875 -5.128906 -4.875 -5.296875 C -5.050781 -5.460938 -5.140625 -5.65625 -5.140625 -5.875 C -5.148438 -6.101562 -5.070312 -6.3125 -4.90625 -6.5 C -4.78125 -6.625 -4.648438 -6.707031 -4.515625 -6.75 C -4.378906 -6.800781 -4.238281 -6.8125 -4.09375 -6.78125 C -3.945312 -6.757812 -3.816406 -6.695312 -3.703125 -6.59375 C -3.578125 -6.488281 -3.492188 -6.363281 -3.453125 -6.21875 C -3.410156 -6.070312 -3.40625 -5.925781 -3.4375 -5.78125 C -3.46875 -5.632812 -3.546875 -5.5 -3.671875 -5.375 Z M 0.546875 -0.609375 L -3.640625 -4.40625 L -2.6875 -5.453125 L 1.5 -1.65625 Z M 0.546875 -0.609375 "/></g></g></g><g fill="#ffffff" fill-opacity="1"><g transform="translate(62.622213, 178.332406)"><g><path d="M 2.09375 -5.75 L -0.4375 -3.140625 C -0.0507812 -2.835938 0.300781 -2.691406 0.625 -2.703125 C 0.957031 -2.722656 1.269531 -2.878906 1.5625 -3.171875 C 1.78125 -3.410156 1.914062 -3.640625 1.96875 -3.859375 C 2.019531 -4.085938 2 -4.332031 1.90625 -4.59375 L 1.984375 -4.671875 L 3.078125 -4.921875 C 3.234375 -4.515625 3.269531 -4.09375 3.1875 -3.65625 C 3.101562 -3.21875 2.847656 -2.773438 2.421875 -2.328125 C 2.003906 -1.898438 1.566406 -1.613281 1.109375 -1.46875 C 0.660156 -1.320312 0.195312 -1.316406 -0.28125 -1.453125 C -0.757812 -1.597656 -1.226562 -1.890625 -1.6875 -2.328125 C -2.144531 -2.765625 -2.445312 -3.226562 -2.59375 -3.71875 C -2.738281 -4.207031 -2.742188 -4.671875 -2.609375 -5.109375 C -2.484375 -5.554688 -2.238281 -5.96875 -1.875 -6.34375 C -1.320312 -6.925781 -0.742188 -7.222656 -0.140625 -7.234375 C 0.460938 -7.242188 1.054688 -6.960938 1.640625 -6.390625 C 1.859375 -6.179688 2.019531 -6.007812 2.125 -5.875 Z M 0.59375 -5.515625 C 0.257812 -5.816406 -0.0390625 -5.960938 -0.3125 -5.953125 C -0.582031 -5.953125 -0.835938 -5.820312 -1.078125 -5.5625 C -1.578125 -5.050781 -1.578125 -4.460938 -1.078125 -3.796875 Z M 0.59375 -5.515625 "/></g></g></g><g fill="#ffffff" fill-opacity="1"><g transform="translate(66.828679, 174.003322)"><g><path d="M 2 -1.734375 C 1.71875 -1.472656 1.425781 -1.265625 1.125 -1.109375 C 0.820312 -0.960938 0.535156 -0.867188 0.265625 -0.828125 C 0.00390625 -0.785156 -0.238281 -0.796875 -0.46875 -0.859375 L -0.46875 -2.015625 L -0.390625 -2.09375 C -0.0859375 -2.039062 0.195312 -2.054688 0.46875 -2.140625 C 0.738281 -2.234375 0.984375 -2.382812 1.203125 -2.59375 C 1.410156 -2.789062 1.53125 -2.96875 1.5625 -3.125 C 1.59375 -3.289062 1.546875 -3.441406 1.421875 -3.578125 C 1.316406 -3.679688 1.191406 -3.734375 1.046875 -3.734375 C 0.910156 -3.734375 0.742188 -3.671875 0.546875 -3.546875 L -0.109375 -3.1875 C -0.609375 -2.894531 -1.046875 -2.753906 -1.421875 -2.765625 C -1.804688 -2.785156 -2.144531 -2.953125 -2.4375 -3.265625 C -2.6875 -3.515625 -2.832031 -3.796875 -2.875 -4.109375 C -2.914062 -4.429688 -2.863281 -4.753906 -2.71875 -5.078125 C -2.582031 -5.398438 -2.359375 -5.710938 -2.046875 -6.015625 C -1.671875 -6.367188 -1.3125 -6.601562 -0.96875 -6.71875 C -0.632812 -6.84375 -0.3125 -6.878906 0 -6.828125 L 0.015625 -5.703125 L -0.0625 -5.625 C -0.300781 -5.65625 -0.519531 -5.628906 -0.71875 -5.546875 C -0.914062 -5.472656 -1.101562 -5.351562 -1.28125 -5.1875 C -1.6875 -4.800781 -1.769531 -4.484375 -1.53125 -4.234375 C -1.425781 -4.128906 -1.300781 -4.078125 -1.15625 -4.078125 C -1.019531 -4.085938 -0.835938 -4.160156 -0.609375 -4.296875 L 0 -4.671875 C 0.5 -4.984375 0.9375 -5.128906 1.3125 -5.109375 C 1.695312 -5.097656 2.046875 -4.925781 2.359375 -4.59375 C 2.609375 -4.332031 2.765625 -4.039062 2.828125 -3.71875 C 2.890625 -3.394531 2.847656 -3.0625 2.703125 -2.71875 C 2.566406 -2.382812 2.332031 -2.054688 2 -1.734375 Z M 2 -1.734375 "/></g></g></g><g fill="#ffffff" fill-opacity="1"><g transform="translate(298.171296, 212.912292)"><g><path d="M 1.640625 -1.46875 C 1.378906 -1.21875 1.109375 -1.046875 0.828125 -0.953125 C 0.546875 -0.859375 0.265625 -0.851562 -0.015625 -0.9375 C -0.296875 -1.019531 -0.566406 -1.191406 -0.828125 -1.453125 C -1.054688 -1.691406 -1.203125 -1.941406 -1.265625 -2.203125 C -1.328125 -2.460938 -1.300781 -2.75 -1.1875 -3.0625 C -1.070312 -3.375 -0.875 -3.726562 -0.59375 -4.125 C -0.382812 -4.394531 -0.242188 -4.617188 -0.171875 -4.796875 C -0.0976562 -4.972656 -0.0664062 -5.109375 -0.078125 -5.203125 C -0.0859375 -5.296875 -0.140625 -5.390625 -0.234375 -5.484375 C -0.359375 -5.609375 -0.5 -5.660156 -0.65625 -5.640625 C -0.8125 -5.617188 -0.992188 -5.503906 -1.203125 -5.296875 C -1.421875 -5.078125 -1.582031 -4.816406 -1.6875 -4.515625 C -1.789062 -4.210938 -1.832031 -3.90625 -1.8125 -3.59375 L -1.890625 -3.53125 L -2.9375 -3.765625 C -2.957031 -4.179688 -2.882812 -4.597656 -2.71875 -5.015625 C -2.550781 -5.441406 -2.296875 -5.820312 -1.953125 -6.15625 C -1.421875 -6.6875 -0.925781 -6.957031 -0.46875 -6.96875 C -0.0078125 -6.976562 0.421875 -6.773438 0.828125 -6.359375 L 2.5625 -4.625 C 2.738281 -4.445312 2.910156 -4.441406 3.078125 -4.609375 C 3.140625 -4.660156 3.1875 -4.726562 3.21875 -4.8125 L 3.265625 -4.84375 L 4.046875 -4.21875 C 4.023438 -4.125 3.972656 -4.015625 3.890625 -3.890625 C 3.816406 -3.765625 3.722656 -3.644531 3.609375 -3.53125 C 3.367188 -3.289062 3.132812 -3.148438 2.90625 -3.109375 C 2.6875 -3.078125 2.445312 -3.128906 2.1875 -3.265625 L 2.109375 -3.1875 C 2.328125 -2.570312 2.171875 -2 1.640625 -1.46875 Z M 1.21875 -2.546875 C 1.445312 -2.773438 1.550781 -3.035156 1.53125 -3.328125 C 1.519531 -3.617188 1.378906 -3.90625 1.109375 -4.1875 L 0.703125 -4.59375 L 0.609375 -4.546875 C 0.597656 -4.429688 0.554688 -4.3125 0.484375 -4.1875 C 0.421875 -4.0625 0.316406 -3.890625 0.171875 -3.671875 C -0.015625 -3.421875 -0.109375 -3.203125 -0.109375 -3.015625 C -0.117188 -2.828125 -0.0390625 -2.65625 0.125 -2.5 C 0.289062 -2.320312 0.46875 -2.238281 0.65625 -2.25 C 0.84375 -2.257812 1.03125 -2.359375 1.21875 -2.546875 Z M 1.21875 -2.546875 "/></g></g></g><g fill="#ffffff" fill-opacity="1"><g transform="translate(302.431331, 208.649115)"><g><path d="M 1.6875 -1.625 C 1.34375 -1.25 0.976562 -1.0625 0.59375 -1.0625 C 0.207031 -1.0625 -0.1875 -1.253906 -0.59375 -1.640625 L -5.21875 -6.015625 L -4.234375 -7.046875 L 0.34375 -2.703125 C 0.59375 -2.460938 0.816406 -2.445312 1.015625 -2.65625 C 1.066406 -2.71875 1.113281 -2.789062 1.15625 -2.875 L 1.234375 -2.90625 L 2.109375 -2.265625 C 2.078125 -2.179688 2.023438 -2.082031 1.953125 -1.96875 C 1.890625 -1.851562 1.800781 -1.738281 1.6875 -1.625 Z M 1.6875 -1.625 "/></g></g></g><g fill="#ffffff" fill-opacity="1"><g transform="translate(304.739504, 206.253948)"><g><path d="M 1.796875 -1.84375 C 1.378906 -1.375 0.9375 -1.144531 0.46875 -1.15625 C 0.0078125 -1.164062 -0.457031 -1.382812 -0.9375 -1.8125 L -3.71875 -4.3125 L -2.78125 -5.359375 L -0.125 -2.984375 C 0.125 -2.753906 0.359375 -2.644531 0.578125 -2.65625 C 0.804688 -2.664062 1.023438 -2.785156 1.234375 -3.015625 C 1.484375 -3.304688 1.582031 -3.613281 1.53125 -3.9375 C 1.488281 -4.269531 1.265625 -4.625 0.859375 -5 L -1.34375 -6.96875 L -0.390625 -8.03125 L 3.8125 -4.265625 L 2.90625 -3.25 L 2.28125 -3.796875 L 2.1875 -3.75 C 2.3125 -3.394531 2.34375 -3.0625 2.28125 -2.75 C 2.226562 -2.445312 2.066406 -2.144531 1.796875 -1.84375 Z M 1.796875 -1.84375 "/></g></g></g><g fill="#ffffff" fill-opacity="1"><g transform="translate(309.210823, 201.308135)"><g><path d="M 0.515625 -0.625 L -3.875 -4.171875 L -3.03125 -5.234375 L -2.453125 -4.765625 L -2.359375 -4.84375 C -2.472656 -5.175781 -2.507812 -5.476562 -2.46875 -5.75 C -2.425781 -6.03125 -2.28125 -6.320312 -2.03125 -6.625 C -1.769531 -6.957031 -1.492188 -7.171875 -1.203125 -7.265625 C -0.910156 -7.367188 -0.597656 -7.363281 -0.265625 -7.25 L -0.203125 -7.328125 C -0.347656 -7.679688 -0.394531 -8.015625 -0.34375 -8.328125 C -0.300781 -8.640625 -0.148438 -8.957031 0.109375 -9.28125 C 0.847656 -10.195312 1.722656 -10.25 2.734375 -9.4375 L 5.6875 -7.046875 L 4.78125 -5.9375 L 1.953125 -8.21875 C 1.703125 -8.414062 1.476562 -8.507812 1.28125 -8.5 C 1.09375 -8.488281 0.90625 -8.375 0.71875 -8.15625 C 0.238281 -7.550781 0.40625 -6.925781 1.21875 -6.28125 L 3.546875 -4.390625 L 2.65625 -3.28125 L -0.171875 -5.5625 C -0.421875 -5.757812 -0.644531 -5.851562 -0.84375 -5.84375 C -1.039062 -5.84375 -1.234375 -5.726562 -1.421875 -5.5 C -1.648438 -5.21875 -1.734375 -4.921875 -1.671875 -4.609375 C -1.609375 -4.296875 -1.367188 -3.972656 -0.953125 -3.640625 L 1.40625 -1.734375 Z M 0.515625 -0.625 "/></g></g></g><g fill="#ffffff" fill-opacity="1"><g transform="translate(315.391535, 193.575772)"><g><path d="M 0.484375 -0.65625 L -4.078125 -3.96875 L -3.28125 -5.0625 L -2.609375 -4.578125 L -2.53125 -4.65625 C -2.84375 -5.320312 -2.769531 -5.972656 -2.3125 -6.609375 C -1.925781 -7.128906 -1.5 -7.410156 -1.03125 -7.453125 C -0.570312 -7.492188 -0.0664062 -7.316406 0.484375 -6.921875 L 3.453125 -4.765625 L 2.625 -3.609375 L -0.203125 -5.671875 C -0.503906 -5.890625 -0.765625 -5.988281 -0.984375 -5.96875 C -1.210938 -5.945312 -1.425781 -5.800781 -1.625 -5.53125 C -1.863281 -5.207031 -1.941406 -4.875 -1.859375 -4.53125 C -1.773438 -4.195312 -1.503906 -3.863281 -1.046875 -3.53125 L 1.3125 -1.8125 Z M 0.484375 -0.65625 "/></g></g></g><g fill="#ffffff" fill-opacity="1"><g transform="translate(319.299062, 188.144936)"><g><path d="M -4.375 -4.8125 C -4.519531 -4.601562 -4.695312 -4.472656 -4.90625 -4.421875 C -5.125 -4.378906 -5.335938 -4.429688 -5.546875 -4.578125 C -5.742188 -4.710938 -5.859375 -4.890625 -5.890625 -5.109375 C -5.929688 -5.328125 -5.878906 -5.539062 -5.734375 -5.75 C -5.640625 -5.894531 -5.523438 -6 -5.390625 -6.0625 C -5.265625 -6.132812 -5.128906 -6.160156 -4.984375 -6.140625 C -4.835938 -6.128906 -4.703125 -6.082031 -4.578125 -6 C -4.441406 -5.90625 -4.34375 -5.789062 -4.28125 -5.65625 C -4.21875 -5.53125 -4.191406 -5.394531 -4.203125 -5.25 C -4.222656 -5.101562 -4.28125 -4.957031 -4.375 -4.8125 Z M 0.453125 -0.671875 L -4.203125 -3.84375 L -3.40625 -5.015625 L 1.25 -1.84375 Z M 0.453125 -0.671875 "/></g></g></g></svg>